<svg width="100" height="100" viewBox="0 0 100 100" fill="none" xmlns="http://www.w3.org/2000/svg">
<g clip-path="url(#clip0)">
<circle cx="50" cy="50" r="50" fill="#A07BEA" fill-opacity="0.12"/>
<path d="M88.2715 36.6994L67.6219 31.6999L14.7782 44.5747L24.0034 76.3055L76.9182 63.4746L88.2715 36.6994Z" fill="#A07BEA"/>
<g filter="url(#filter0_f)">
<path d="M88.2715 36.6994L67.6219 31.6999L14.7782 44.5747L24.0034 76.3055L76.9182 63.4746L88.2715 36.6994Z" fill="#A07BEA"/>
<path d="M88.2715 36.6994L67.6219 31.6999L14.7782 44.5747L24.0034 76.3055L76.9182 63.4746L88.2715 36.6994Z" stroke="#A07BEA"/>
</g>
<path d="M14.7606 44.5547L35.4102 49.5542L24.057 76.3294L14.7606 44.5547Z" fill="#A07BEA"/>
<path d="M14.7606 44.5547L35.4102 49.5542L24.057 76.3294L14.7606 44.5547Z" fill="url(#paint0_linear)"/>
<path d="M88.2264 36.8096L35.5204 49.5993L24.0084 76.2303L76.9398 63.4557L88.2264 36.8096Z" fill="url(#paint1_linear)"/>
</g>
<defs>
<filter id="filter0_f" x="2.3342" y="2.73021" width="96.2149" height="94.384" filterUnits="userSpaceOnUse" color-interpolation-filters="sRGB">
<feFlood flood-opacity="0" result="BackgroundImageFix"/>
<feBlend mode="normal" in="SourceGraphic" in2="BackgroundImageFix" result="shape"/>
<feGaussianBlur stdDeviation="0.5" result="effect1_foregroundBlur"/>
</filter>
<linearGradient id="paint0_linear" x1="26.5132" y1="47.1496" x2="23.6077" y2="72.6184" gradientUnits="userSpaceOnUse">
<stop stop-color="white" stop-opacity="0.5"/>
<stop offset="1" stop-color="white" stop-opacity="0.15"/>
</linearGradient>
<linearGradient id="paint1_linear" x1="56.2301" y1="45.2058" x2="59.1157" y2="67.5887" gradientUnits="userSpaceOnUse">
<stop stop-opacity="0.35"/>
<stop offset="1" stop-opacity="0.1"/>
</linearGradient>
<clipPath id="clip0">
<rect width="100" height="100" fill="white"/>
</clipPath>
</defs>
</svg>
