<svg width="100" height="100" viewBox="0 0 100 100" fill="none" xmlns="http://www.w3.org/2000/svg">
<g clip-path="url(#clip0)">
<circle cx="50" cy="50" r="50" fill="#ECC94B" fill-opacity="0.12"/>
<path d="M18.5432 63.3815C23.3558 73.9541 30.2033 81.1837 33.8376 79.5294L83.6651 56.8482L66.2372 18.5616L16.4097 41.2428C12.7754 42.8971 13.7306 52.809 18.5432 63.3815Z" fill="#ECC94B"/>
<path d="M18.5432 63.3815C23.3558 73.9541 30.2033 81.1837 33.8376 79.5294L83.6651 56.8482L66.2372 18.5616L16.4097 41.2428C12.7754 42.8971 13.7306 52.809 18.5432 63.3815Z" fill="url(#paint0_linear)"/>
<ellipse cx="74.8763" cy="37.7389" rx="21.0333" ry="7.23019" transform="rotate(65.5252 74.8763 37.7389)" fill="#ECC94B"/>
<ellipse cx="74.8763" cy="37.7389" rx="21.0333" ry="7.23019" transform="rotate(65.5252 74.8763 37.7389)" fill="url(#paint1_linear)"/>
<g filter="url(#filter0_f)">
<mask id="path-6-inside-1" fill="white">
<path fill-rule="evenodd" clip-rule="evenodd" d="M83.5903 56.8822L33.8376 79.5294C30.2033 81.1837 23.3558 73.9541 18.5432 63.3815C13.7306 52.809 12.7754 42.8971 16.4097 41.2428L66.1594 18.597C66.1604 18.5965 66.1614 18.5961 66.1624 18.5956C66.1634 18.5952 66.1643 18.5947 66.1653 18.5943L66.2372 18.5616L66.2377 18.5628C69.8907 17.0408 76.6773 24.2436 81.4568 34.7435C86.2364 45.2434 87.2113 55.0917 83.6645 56.847L83.6651 56.8482L83.5903 56.8822Z"/>
</mask>
<path d="M33.8376 79.5294L34.6662 81.3497L33.8376 79.5294ZM83.5903 56.8822L82.7618 55.0619L82.7617 55.0619L83.5903 56.8822ZM16.4097 41.2428L15.5812 39.4225L16.4097 41.2428ZM66.1594 18.597L66.988 20.4172L66.9903 20.4162L66.1594 18.597ZM66.1653 18.5943L66.9916 20.4156L66.9939 20.4146L66.1653 18.5943ZM66.2372 18.5616L68.0574 17.733L67.2289 15.9127L65.4086 16.7413L66.2372 18.5616ZM66.2377 18.5628L64.4174 19.3914L65.2196 21.1536L67.0069 20.4089L66.2377 18.5628ZM83.6645 56.847L82.7774 55.0545L81.042 55.9133L81.8442 57.6755L83.6645 56.847ZM83.6651 56.8482L84.4936 58.6685L86.314 57.84L85.4853 56.0196L83.6651 56.8482ZM34.6662 81.3497L84.4189 58.7025L82.7617 55.0619L33.0091 77.7091L34.6662 81.3497ZM16.7229 64.2101C19.1956 69.6424 22.2235 74.2941 25.1802 77.4159C26.6515 78.9693 28.1842 80.2281 29.7014 80.982C31.2 81.7267 32.9849 82.115 34.6662 81.3497L33.0091 77.7091C32.8732 77.7709 32.4393 77.8759 31.4814 77.3999C30.5421 76.9332 29.3808 76.034 28.0843 74.6652C25.5056 71.9426 22.7033 67.6932 20.3635 62.5529L16.7229 64.2101ZM15.5812 39.4225C13.8998 40.1879 13.0205 41.7889 12.5979 43.4081C12.1701 45.0473 12.1129 47.0299 12.3181 49.1597C12.7305 53.4396 14.2502 58.7779 16.7229 64.2101L20.3635 62.5529C18.0236 57.4126 16.6594 52.5087 16.2997 48.776C16.1188 46.8994 16.2034 45.4331 16.4683 44.4182C16.7384 43.3832 17.1025 43.1249 17.2383 43.0631L15.5812 39.4225ZM65.3308 16.7767L15.5812 39.4225L17.2383 43.0631L66.988 20.4172L65.3308 16.7767ZM66.9903 20.4162C66.9905 20.4161 66.9908 20.416 66.991 20.4159L65.3338 16.7753C65.332 16.7761 65.3303 16.7769 65.3285 16.7777L66.9903 20.4162ZM66.991 20.4159C66.9912 20.4158 66.9914 20.4157 66.9916 20.4156L65.3391 16.7729C65.3373 16.7737 65.3355 16.7745 65.3338 16.7753L66.991 20.4159ZM65.4086 16.7413L65.3367 16.774L66.9939 20.4146L67.0657 20.3819L65.4086 16.7413ZM68.058 17.7342L68.0574 17.733L64.4169 19.3902L64.4174 19.3914L68.058 17.7342ZM67.0069 20.4089C67.1528 20.3481 67.6077 20.2596 68.5752 20.7536C69.5199 21.236 70.6795 22.146 71.9683 23.5156C74.5331 26.2409 77.313 30.4676 79.6365 35.5721L83.2771 33.9149C80.8211 28.5194 77.818 23.8948 74.8813 20.7742C73.4194 19.2209 71.8987 17.9593 70.3942 17.1911C68.9124 16.4345 67.1491 16.0164 65.4685 16.7166L67.0069 20.4089ZM79.6365 35.5721C81.9601 40.6766 83.322 45.5488 83.6929 49.2727C83.8793 51.1441 83.804 52.6162 83.5474 53.6454C83.2846 54.6994 82.9191 54.9843 82.7774 55.0545L84.5516 58.6395C86.1833 57.8319 87.026 56.2276 87.4286 54.6132C87.8373 52.9741 87.8846 50.9988 87.6732 48.8762C87.2485 44.6123 85.7331 39.3104 83.2771 33.9149L79.6365 35.5721ZM85.4853 56.0196L85.4848 56.0184L81.8442 57.6755L81.8448 57.6768L85.4853 56.0196ZM84.4188 58.7025L84.4936 58.6685L82.8366 55.0278L82.7618 55.0619L84.4188 58.7025Z" fill="url(#paint2_linear)" mask="url(#path-6-inside-1)"/>
</g>
<g filter="url(#filter1_f)">
<path d="M18.5432 63.3815C23.3558 73.9541 30.2033 81.1837 33.8376 79.5294L83.6651 56.8482L66.2372 18.5616L16.4097 41.2428C12.7754 42.8971 13.7306 52.809 18.5432 63.3815Z" fill="url(#paint3_radial)"/>
</g>
</g>
<defs>
<filter id="filter0_f" x="8.82923" y="14.6002" width="82.3416" height="68.9246" filterUnits="userSpaceOnUse" color-interpolation-filters="sRGB">
<feFlood flood-opacity="0" result="BackgroundImageFix"/>
<feBlend mode="normal" in="SourceGraphic" in2="BackgroundImageFix" result="shape"/>
<feGaussianBlur stdDeviation="0.5" result="effect1_foregroundBlur"/>
</filter>
<filter id="filter1_f" x="5.82923" y="14.5616" width="81.8358" height="71.9633" filterUnits="userSpaceOnUse" color-interpolation-filters="sRGB">
<feFlood flood-opacity="0" result="BackgroundImageFix"/>
<feBlend mode="normal" in="SourceGraphic" in2="BackgroundImageFix" result="shape"/>
<feGaussianBlur stdDeviation="2" result="effect1_foregroundBlur"/>
</filter>
<linearGradient id="paint0_linear" x1="37.9714" y1="31.9853" x2="51.9573" y2="70.2429" gradientUnits="userSpaceOnUse">
<stop stop-opacity="0.2"/>
<stop offset="0.489583" stop-color="#939393" stop-opacity="0"/>
<stop offset="1" stop-color="white" stop-opacity="0"/>
</linearGradient>
<linearGradient id="paint1_linear" x1="74.8763" y1="30.5087" x2="74.8763" y2="44.9691" gradientUnits="userSpaceOnUse">
<stop stop-color="white" stop-opacity="0.15"/>
<stop offset="1" stop-color="white" stop-opacity="0.5"/>
</linearGradient>
<linearGradient id="paint2_linear" x1="21.1744" y1="62.4543" x2="81.5431" y2="35.9319" gradientUnits="userSpaceOnUse">
<stop stop-color="#ECC94B" stop-opacity="0.39"/>
<stop offset="1" stop-color="#ECC94B" stop-opacity="0"/>
</linearGradient>
<radialGradient id="paint3_radial" cx="0" cy="0" r="1" gradientUnits="userSpaceOnUse" gradientTransform="translate(53.6675 61.7827) rotate(157.266) scale(24.3977 11.0474)">
<stop stop-color="white" stop-opacity="0.37"/>
<stop offset="1" stop-color="white" stop-opacity="0"/>
</radialGradient>
<clipPath id="clip0">
<rect width="100" height="100" fill="white"/>
</clipPath>
</defs>
</svg>
