<svg width="100" height="100" viewBox="0 0 100 100" fill="none" xmlns="http://www.w3.org/2000/svg">
<g clip-path="url(#clip0)">
<circle cx="50" cy="50" r="50" fill="#F56666" fill-opacity="0.12"/>
<path d="M90.604 56.1981L90.6313 56.2051L36.527 15.75L36.527 15.7599L24.3687 79.1253L24.4146 79.0842L90.604 56.1981Z" fill="#F56666"/>
<path d="M90.6123 56.1952L24.4067 79.0869L59.0578 48.0454L90.6123 56.1952Z" fill="#F56666"/>
<path d="M24.3687 79.1253L36.527 15.7599L59.0198 48.0722L24.3687 79.1253Z" fill="#F56666"/>
<path d="M90.6313 56.2051L59.0198 48.0718L36.527 15.75L90.6313 56.2051Z" fill="#F56666"/>
<path d="M90.6123 56.1952L24.4067 79.0869L59.0578 48.0454L90.6123 56.1952Z" fill="url(#paint0_linear)"/>
<path d="M90.6313 56.2051L59.0198 48.0718L36.527 15.75L90.6313 56.2051Z" fill="url(#paint1_linear)"/>
<g filter="url(#filter0_f)">
<path d="M90.604 56.1981L90.6313 56.2051L36.527 15.75L36.527 15.7599L24.3687 79.1253L24.4146 79.0842L90.604 56.1981Z" stroke="url(#paint2_radial)"/>
</g>
</g>
<defs>
<filter id="filter0_f" x="21.5983" y="12.753" width="71.3324" height="69.7342" filterUnits="userSpaceOnUse" color-interpolation-filters="sRGB">
<feFlood flood-opacity="0" result="BackgroundImageFix"/>
<feBlend mode="normal" in="SourceGraphic" in2="BackgroundImageFix" result="shape"/>
<feGaussianBlur stdDeviation="1" result="effect1_foregroundBlur"/>
</filter>
<linearGradient id="paint0_linear" x1="59.0198" y1="48.0454" x2="65.7068" y2="64.991" gradientUnits="userSpaceOnUse">
<stop stop-opacity="0.1"/>
<stop offset="1" stop-opacity="0.35"/>
</linearGradient>
<linearGradient id="paint1_linear" x1="59" y1="48.25" x2="76.8013" y2="52.8327" gradientUnits="userSpaceOnUse">
<stop stop-color="white" stop-opacity="0.5"/>
<stop offset="1" stop-color="white" stop-opacity="0.15"/>
</linearGradient>
<radialGradient id="paint2_radial" cx="0" cy="0" r="1" gradientUnits="userSpaceOnUse" gradientTransform="translate(36.5 17) rotate(64.2551) scale(54.6775 57.1684)">
<stop stop-color="#F56666"/>
<stop offset="1" stop-color="#F56666" stop-opacity="0"/>
</radialGradient>
<clipPath id="clip0">
<rect width="100" height="100" fill="white"/>
</clipPath>
</defs>
</svg>
