<svg width="297" height="61" viewBox="0 0 297 61" fill="none" xmlns="http://www.w3.org/2000/svg">
<path d="M98.9998 30.5925H103.371L111.585 11.5525L115.795 21.1159H110.407L108.818 24.8197H117.34L119.813 30.5925H124.332L113.646 6.56097H109.686L98.9998 30.5925Z" fill="black"/>
<path d="M85.9288 24.6751H85.7816L78.1127 13.4044V30.5781H73.8881V6.56097H78.4807L85.9288 17.9329L93.3769 6.56097H97.9695V30.607H93.6713V13.3465L85.9288 24.6751Z" fill="black"/>
<path d="M135.475 16.6308C140.642 17.8606 143.335 19.6836 143.335 23.6913C143.335 28.2198 139.729 30.8964 134.621 30.8964C130.897 30.8964 127.365 29.6232 124.435 27.0479L126.982 24.0096C129.322 26.0062 131.663 27.1347 134.695 27.1347C137.359 27.1347 139.023 25.9338 139.023 24.0819C139.023 22.3313 138.036 21.4198 133.503 20.3781C128.292 19.1483 125.363 17.6436 125.363 13.1874C125.363 9.00613 128.851 6.17038 133.709 6.17038C137.256 6.17038 140.112 7.24102 142.57 9.19421L140.274 12.3772C138.066 10.7712 135.887 9.90315 133.65 9.90315C131.133 9.90315 129.676 11.1763 129.676 12.7823C129.661 14.6921 130.78 15.5168 135.475 16.6308Z" fill="black"/>
<path d="M157.937 30.9832C150.416 30.9832 145.205 25.384 145.205 18.584C145.205 11.7985 150.519 6.11249 158.04 6.11249C165.562 6.11249 170.773 11.7117 170.773 18.5117C170.773 25.2972 165.459 30.9832 157.937 30.9832ZM157.937 10.0044C153.08 10.0044 149.694 13.8095 149.694 18.5261C149.694 23.2283 153.153 27.0913 158.011 27.0913C162.868 27.0913 166.254 23.2861 166.254 18.5695C166.254 13.8529 162.809 10.0044 157.937 10.0044Z" fill="black"/>
<path d="M250.435 26.8163C251.569 26.8163 252.54 27.5976 252.54 28.8419C252.54 30.0861 251.539 30.8819 250.435 30.8819C249.331 30.8819 248.331 30.0717 248.331 28.8419C248.316 27.6266 249.317 26.8163 250.435 26.8163ZM250.435 30.4768C251.289 30.4768 251.981 29.7968 251.981 28.8708C251.981 27.9449 251.289 27.2793 250.435 27.2793C249.582 27.2793 248.89 27.9449 248.89 28.8708C248.89 29.7968 249.582 30.4768 250.435 30.4768ZM249.611 27.7134H250.48C251.068 27.7134 251.377 27.887 251.377 28.3934C251.377 28.7985 251.098 28.9721 250.774 29.001L251.392 29.9849H250.921L250.362 29.0155H250.067V29.9849H249.611V27.7134ZM250.082 28.6827H250.494C250.745 28.6827 250.951 28.6538 250.951 28.3789C250.951 28.1329 250.671 28.0895 250.48 28.0895H250.097V28.6827H250.082Z" fill="black"/>
<path d="M190.659 6.56097H194.884V30.607H191.277L177.809 13.5201V30.607H173.584V6.56097H177.558L190.659 23.1848V6.56097Z" fill="black"/>
<path d="M217.817 30.5781H213.489V10.4529H205.732V6.54651H225.574V10.4529H217.817V30.5781Z" fill="black"/>
<path d="M202.862 6.56097V30.5781H198.563V6.56097H202.862Z" fill="black"/>
<path d="M246.505 10.3082H232.669V26.7874H246.535V30.5491H228.371V6.56097H246.476V10.3227H246.505V10.3082Z" fill="black"/>
<path d="M243.076 16.6019H235.451L235.436 20.3346H243.09L243.076 16.6019Z" fill="black"/>
<g filter="url(#filter0_i)">
<path d="M0 10.4008C0 4.6566 4.77711 0 10.67 0H50.3731C56.266 0 61.0431 4.6566 61.0431 10.4008V49.5992C61.0431 55.3434 56.266 60 50.3731 60H10.67C4.7771 60 0 55.3434 0 49.5992V10.4008Z" fill="#99C221"/>
</g>
<path d="M23.3848 46.0146V27.8493L27.7284 30.3329V46.0146H23.3848Z" fill="white"/>
<path d="M13.4969 45.953V13.9841L37.6268 27.7672V46.0146H33.2624V30.2919L17.8614 21.476V45.953H13.4969Z" fill="white"/>
<path d="M43.1921 46.015V21.4251L37.6165 24.6271L33.2729 22.1333L47.5462 14.005V46.015H43.1921Z" fill="white"/>
<path d="M78.8118 56.4602C83.2389 56.4602 85.8639 53.7469 85.8639 49.2483C85.8639 44.7638 83.2389 42.0647 78.9111 42.0647H73.8881V56.4602H78.8118ZM76.5202 54.2038V44.321H78.7621C81.7135 44.321 83.253 45.9517 83.253 49.2483C83.253 52.559 81.7135 54.2038 78.6841 54.2038H76.5202Z" fill="#99C221"/>
<path d="M88.2512 56.4602H90.8195V45.6635H88.2512V56.4602ZM89.5424 44.1312C90.3583 44.1312 91.0252 43.5126 91.0252 42.7535C91.0252 41.9873 90.3583 41.3688 89.5424 41.3688C88.7195 41.3688 88.0526 41.9873 88.0526 42.7535C88.0526 43.5126 88.7195 44.1312 89.5424 44.1312Z" fill="#99C221"/>
<path d="M98.1997 60.6917C101.144 60.6917 103.315 59.3561 103.315 56.6359V45.6635H100.782V47.4489H100.64C100.25 46.6687 99.4341 45.5229 97.5115 45.5229C94.9929 45.5229 93.0135 47.477 93.0135 51.0267C93.0135 54.5483 94.9929 56.3055 97.5044 56.3055C99.3703 56.3055 100.243 55.3144 100.64 54.5201H100.768V56.5656C100.768 58.112 99.7037 58.7657 98.2422 58.7657C96.6956 58.7657 96.0145 58.0417 95.7023 57.4513L93.3895 58.0066C93.8577 59.4756 95.4257 60.6917 98.1997 60.6917ZM98.2209 54.3093C96.5253 54.3093 95.6314 53.0019 95.6314 51.0126C95.6314 49.0515 96.5111 47.6106 98.2209 47.6106C99.874 47.6106 100.782 48.9672 100.782 51.0126C100.782 53.0722 99.8598 54.3093 98.2209 54.3093Z" fill="#99C221"/>
<path d="M105.947 56.4602H108.515V45.6635H105.947V56.4602ZM107.238 44.1312C108.054 44.1312 108.721 43.5126 108.721 42.7535C108.721 41.9873 108.054 41.3688 107.238 41.3688C106.415 41.3688 105.748 41.9873 105.748 42.7535C105.748 43.5126 106.415 44.1312 107.238 44.1312Z" fill="#99C221"/>
<path d="M116.598 45.6635H114.448V43.0768H111.88V45.6635H110.333V47.6317H111.88V53.6345C111.866 55.6659 113.356 56.664 115.285 56.6078C116.016 56.5867 116.52 56.4461 116.796 56.3547L116.364 54.3655C116.222 54.4006 115.931 54.4639 115.612 54.4639C114.966 54.4639 114.448 54.239 114.448 53.2127V47.6317H116.598V45.6635Z" fill="#99C221"/>
<path d="M121.882 56.6781C123.591 56.6781 124.613 55.8838 125.081 54.977H125.166V56.4602H127.635V49.2343C127.635 46.3805 125.287 45.5229 123.208 45.5229C120.917 45.5229 119.157 46.5351 118.59 48.5033L120.988 48.8407C121.243 48.1026 121.967 47.47 123.222 47.47C124.414 47.47 125.067 48.0745 125.067 49.1359V49.1781C125.067 49.9091 124.294 49.9442 122.371 50.1481C120.257 50.373 118.235 50.9986 118.235 53.4306C118.235 55.5534 119.803 56.6781 121.882 56.6781ZM122.548 54.8083C121.477 54.8083 120.711 54.3233 120.711 53.3885C120.711 52.4114 121.569 52.0037 122.719 51.8421C123.393 51.7507 124.741 51.582 125.074 51.3149V52.5871C125.074 53.7891 124.095 54.8083 122.548 54.8083Z" fill="#99C221"/>
<path d="M132.786 42.0647H130.218V56.4602H132.786V42.0647Z" fill="#99C221"/>
<path d="M143.128 42.0647H140.496V56.4602H143.128V42.0647Z" fill="#99C221"/>
<path d="M148.433 50.134C148.433 48.5736 149.384 47.6738 150.739 47.6738C152.066 47.6738 152.86 48.5384 152.86 49.9794V56.4602H155.428V49.5857C155.436 46.999 153.946 45.5229 151.697 45.5229C150.065 45.5229 148.944 46.2961 148.447 47.4981H148.32V45.6635H145.865V56.4602H148.433V50.134Z" fill="#99C221"/>
<path d="M160.608 50.134C160.608 48.5736 161.558 47.6738 162.913 47.6738C164.24 47.6738 165.035 48.5384 165.035 49.9794V56.4602H167.603V49.5857C167.61 46.999 166.12 45.5229 163.871 45.5229C162.239 45.5229 161.118 46.2961 160.622 47.4981H160.494V45.6635H158.039V56.4602H160.608V50.134Z" fill="#99C221"/>
<path d="M174.967 56.671C178.16 56.671 180.189 54.4428 180.189 51.104C180.189 47.7582 178.16 45.5229 174.967 45.5229C171.775 45.5229 169.745 47.7582 169.745 51.104C169.745 54.4428 171.775 56.671 174.967 56.671ZM174.981 54.6326C173.215 54.6326 172.349 53.0722 172.349 51.097C172.349 49.1218 173.215 47.5403 174.981 47.5403C176.719 47.5403 177.585 49.1218 177.585 51.097C177.585 53.0722 176.719 54.6326 174.981 54.6326Z" fill="#99C221"/>
<path d="M191.732 45.6635H189L186.489 53.6837H186.375L183.871 45.6635H181.132L185.013 56.4602H187.851L191.732 45.6635Z" fill="#99C221"/>
<path d="M196.333 56.6781C198.042 56.6781 199.064 55.8838 199.532 54.977H199.617V56.4602H202.086V49.2343C202.086 46.3805 199.738 45.5229 197.659 45.5229C195.368 45.5229 193.608 46.5351 193.041 48.5033L195.439 48.8407C195.694 48.1026 196.418 47.47 197.673 47.47C198.865 47.47 199.518 48.0745 199.518 49.1359V49.1781C199.518 49.9091 198.745 49.9442 196.822 50.1481C194.708 50.373 192.686 50.9986 192.686 53.4306C192.686 55.5534 194.254 56.6781 196.333 56.6781ZM196.999 54.8083C195.928 54.8083 195.162 54.3233 195.162 53.3885C195.162 52.4114 196.02 52.0037 197.17 51.8421C197.844 51.7507 199.192 51.582 199.525 51.3149V52.5871C199.525 53.7891 198.546 54.8083 196.999 54.8083Z" fill="#99C221"/>
<path d="M210.11 45.6635H207.961V43.0768H205.392V45.6635H203.846V47.6317H205.392V53.6345C205.378 55.6659 206.868 56.664 208.798 56.6078C209.529 56.5867 210.032 56.4461 210.309 56.3547L209.876 54.3655C209.734 54.4006 209.443 54.4639 209.124 54.4639C208.479 54.4639 207.961 54.239 207.961 53.2127V47.6317H210.11V45.6635Z" fill="#99C221"/>
<path d="M212.258 56.4602H214.826V45.6635H212.258V56.4602ZM213.549 44.1312C214.365 44.1312 215.032 43.5126 215.032 42.7535C215.032 41.9873 214.365 41.3688 213.549 41.3688C212.726 41.3688 212.06 41.9873 212.06 42.7535C212.06 43.5126 212.726 44.1312 213.549 44.1312Z" fill="#99C221"/>
<path d="M222.221 56.671C225.413 56.671 227.443 54.4428 227.443 51.104C227.443 47.7582 225.413 45.5229 222.221 45.5229C219.028 45.5229 216.999 47.7582 216.999 51.104C216.999 54.4428 219.028 56.671 222.221 56.671ZM222.235 54.6326C220.468 54.6326 219.603 53.0722 219.603 51.097C219.603 49.1218 220.468 47.5403 222.235 47.5403C223.973 47.5403 224.839 49.1218 224.839 51.097C224.839 53.0722 223.973 54.6326 222.235 54.6326Z" fill="#99C221"/>
<path d="M232.191 50.134C232.191 48.5736 233.141 47.6738 234.496 47.6738C235.823 47.6738 236.618 48.5384 236.618 49.9794V56.4602H239.186V49.5857C239.193 46.999 237.703 45.5229 235.454 45.5229C233.822 45.5229 232.701 46.2961 232.205 47.4981H232.077V45.6635H229.622V56.4602H232.191V50.134Z" fill="#99C221"/>
<path d="M246.227 44.2507H250.718V56.4602H253.329V44.2507H257.82V42.0647H246.227V44.2507Z" fill="#99C221"/>
<path d="M263.185 56.671C265.725 56.671 267.47 55.4409 267.924 53.5642L265.526 53.2971C265.179 54.2109 264.328 54.6888 263.221 54.6888C261.561 54.6888 260.461 53.6064 260.44 51.7577H268.031V50.9775C268.031 47.1888 265.732 45.5229 263.05 45.5229C259.929 45.5229 257.893 47.7933 257.893 51.1251C257.893 54.5131 259.9 56.671 263.185 56.671ZM260.447 50.0426C260.525 48.6649 261.554 47.5051 263.086 47.5051C264.562 47.5051 265.555 48.5736 265.569 50.0426H260.447Z" fill="#99C221"/>
<path d="M273.339 56.6781C275.049 56.6781 276.071 55.8838 276.539 54.977H276.624V56.4602H279.093V49.2343C279.093 46.3805 276.745 45.5229 274.666 45.5229C272.375 45.5229 270.615 46.5351 270.048 48.5033L272.446 48.8407C272.701 48.1026 273.425 47.47 274.68 47.47C275.872 47.47 276.525 48.0745 276.525 49.1359V49.1781C276.525 49.9091 275.752 49.9442 273.829 50.1481C271.715 50.373 269.693 50.9986 269.693 53.4306C269.693 55.5534 271.261 56.6781 273.339 56.6781ZM274.006 54.8083C272.935 54.8083 272.169 54.3233 272.169 53.3885C272.169 52.4114 273.027 52.0037 274.177 51.8421C274.851 51.7507 276.199 51.582 276.532 51.3149V52.5871C276.532 53.7891 275.553 54.8083 274.006 54.8083Z" fill="#99C221"/>
<path d="M281.676 56.4602H284.244V49.895C284.244 48.5665 285.138 47.6668 286.245 47.6668C287.33 47.6668 288.075 48.3908 288.075 49.5014V56.4602H290.594V49.7263C290.594 48.5103 291.324 47.6668 292.566 47.6668C293.602 47.6668 294.425 48.2713 294.425 49.6068V56.4602H297V49.2132C297 46.8022 295.595 45.5229 293.595 45.5229C292.013 45.5229 290.806 46.2961 290.324 47.4981H290.21C289.792 46.2751 288.735 45.5229 287.266 45.5229C285.805 45.5229 284.712 46.268 284.258 47.4981H284.13V45.6635H281.676V56.4602Z" fill="#99C221"/>
<defs>
<filter id="filter0_i" x="0" y="0" width="61.0431" height="60" filterUnits="userSpaceOnUse" color-interpolation-filters="sRGB">
<feFlood flood-opacity="0" result="BackgroundImageFix"/>
<feBlend mode="normal" in="SourceGraphic" in2="BackgroundImageFix" result="shape"/>
<feColorMatrix in="SourceAlpha" type="matrix" values="0 0 0 0 0 0 0 0 0 0 0 0 0 0 0 0 0 0 127 0" result="hardAlpha"/>
<feOffset/>
<feGaussianBlur stdDeviation="12"/>
<feComposite in2="hardAlpha" operator="arithmetic" k2="-1" k3="1"/>
<feColorMatrix type="matrix" values="0 0 0 0 1 0 0 0 0 1 0 0 0 0 1 0 0 0 0.2 0"/>
<feBlend mode="normal" in2="shape" result="effect1_innerShadow"/>
</filter>
</defs>
</svg>
