<svg width="100" height="100" viewBox="0 0 100 100" fill="none" xmlns="http://www.w3.org/2000/svg">
<g clip-path="url(#clip0)">
<circle cx="50" cy="50" r="50" fill="#49BC78" fill-opacity="0.12"/>
<g filter="url(#filter0_f)">
<path d="M14.9474 47.7028L15.0115 48.7008L15.5272 48.6676L15.7984 48.2279L14.9474 47.7028ZM32.037 20.003L31.9764 19.0049L31.4584 19.0363L31.1859 19.478L32.037 20.003ZM64.551 18.029L64.6116 19.0271L65.1266 18.9959L65.3996 18.558L64.551 18.029ZM64.581 17.9809L65.4393 17.4679L64.599 16.0619L63.7324 17.4519L64.581 17.9809ZM64.6076 18.0255L63.7493 18.5386L64.0613 19.0606L64.6682 19.0237L64.6076 18.0255ZM64.6713 18.0217L65.5206 18.5496L66.5422 16.9063L64.6107 17.0235L64.6713 18.0217ZM64.6377 18.0758L63.7884 17.5479L63.4666 18.0656L63.7793 18.5889L64.6377 18.0758ZM85.1465 52.3872L85.9951 52.9163L86.3181 52.3982L86.0049 51.8741L85.1465 52.3872ZM67.9144 80.026L67.9785 81.024L68.4912 80.991L68.763 80.5551L67.9144 80.026ZM35.4107 82.1157L34.5524 82.6287L34.8656 83.1528L35.4749 83.1136L35.4107 82.1157ZM14.8452 47.7094L14.781 46.7114L13.1465 46.8165L13.9868 48.2224L14.8452 47.7094ZM15.7984 48.2279L32.8881 20.5281L31.1859 19.478L14.0963 47.1777L15.7984 48.2279ZM32.0976 21.0012L64.6116 19.0271L64.4904 17.0308L31.9764 19.0049L32.0976 21.0012ZM65.3996 18.558L65.4296 18.51L63.7324 17.4519L63.7024 17.4999L65.3996 18.558ZM63.7226 18.494L63.7493 18.5386L65.466 17.5125L65.4393 17.4679L63.7226 18.494ZM64.6682 19.0237L64.7319 19.0198L64.6107 17.0235L64.547 17.0274L64.6682 19.0237ZM63.8221 17.4937L63.7884 17.5479L65.487 18.6037L65.5206 18.5496L63.8221 17.4937ZM63.7793 18.5889L84.2882 52.9003L86.0049 51.8741L65.496 17.5627L63.7793 18.5889ZM84.298 51.8581L67.0658 79.497L68.763 80.5551L85.9951 52.9163L84.298 51.8581ZM67.8502 79.0281L35.3466 81.1177L35.4749 83.1136L67.9785 81.024L67.8502 79.0281ZM36.2691 81.6026L15.7035 47.1963L13.9868 48.2224L34.5524 82.6287L36.2691 81.6026ZM14.9093 48.7073L15.0115 48.7008L14.8832 46.7049L14.781 46.7114L14.9093 48.7073Z" fill="#49BC78"/>
</g>
<path d="M14.8452 47.7094L47.3488 45.6198L67.9144 80.026L35.4107 82.1157L14.8452 47.7094Z" fill="#49BC78"/>
<path d="M64.581 17.9809L47.3488 45.6198L67.9144 80.026L85.1465 52.3872L64.581 17.9809Z" fill="#49BC78"/>
<path d="M47.4309 45.7571L14.9081 47.7665L32.037 20.003L64.6713 18.0217L47.4309 45.7571Z" fill="#49BC78"/>
<path d="M14.8452 47.7094L47.3488 45.6198L67.9144 80.026L35.4107 82.1157L14.8452 47.7094Z" fill="url(#paint0_linear)"/>
<path d="M64.581 17.9809L47.3488 45.6198L67.9144 80.026L85.1465 52.3872L64.581 17.9809Z" fill="#49BC78"/>
<path d="M47.4309 45.7571L14.9081 47.7665L32.037 20.003L64.6713 18.0217L47.4309 45.7571Z" fill="url(#paint1_linear)"/>
</g>
<defs>
<filter id="filter0_f" x="12.1465" y="15.0619" width="75.1717" height="69.0909" filterUnits="userSpaceOnUse" color-interpolation-filters="sRGB">
<feFlood flood-opacity="0" result="BackgroundImageFix"/>
<feBlend mode="normal" in="SourceGraphic" in2="BackgroundImageFix" result="shape"/>
<feGaussianBlur stdDeviation="0.5" result="effect1_foregroundBlur"/>
</filter>
<linearGradient id="paint0_linear" x1="34" y1="47" x2="49.5" y2="78.5" gradientUnits="userSpaceOnUse">
<stop stop-opacity="0.1"/>
<stop offset="1" stop-opacity="0.35"/>
</linearGradient>
<linearGradient id="paint1_linear" x1="32.0719" y1="19.9822" x2="47.4658" y2="45.7362" gradientUnits="userSpaceOnUse">
<stop stop-color="white" stop-opacity="0.15"/>
<stop offset="1" stop-color="white" stop-opacity="0.5"/>
</linearGradient>
<clipPath id="clip0">
<rect width="100" height="100" fill="white"/>
</clipPath>
</defs>
</svg>
